<svg xmlns="http://www.w3.org/2000/svg" xmlns:xlink="http://www.w3.org/1999/xlink" width="500" zoomAndPan="magnify" viewBox="0 0 375 374.999991" height="500" preserveAspectRatio="xMidYMid meet" version="1.0"><defs><g/><clipPath id="5fbe06d939"><path d="M 160 165 L 218 165 L 218 197.460938 L 160 197.460938 Z M 160 165 " clip-rule="nonzero"/></clipPath><clipPath id="7067a59f44"><path d="M 225 192 L 321.6875 192 L 321.6875 195 L 225 195 Z M 225 192 " clip-rule="nonzero"/></clipPath><clipPath id="3871964d3e"><path d="M 188 81.960938 L 191 81.960938 L 191 158 L 188 158 Z M 188 81.960938 " clip-rule="nonzero"/></clipPath></defs><g clip-path="url(#5fbe06d939)"><path fill="#ffde59" d="M 189.457031 165.371094 C 173.742188 165.371094 160.964844 178.148438 160.964844 193.863281 C 160.964844 209.578125 173.742188 222.378906 189.457031 222.378906 C 205.175781 222.378906 217.949219 209.601562 217.949219 193.886719 C 217.949219 178.171875 205.175781 165.371094 189.457031 165.371094 Z M 189.457031 220.117188 C 174.984375 220.117188 163.226562 208.359375 163.226562 193.886719 C 163.226562 179.414062 174.984375 167.65625 189.457031 167.65625 C 203.929688 167.65625 215.6875 179.414062 215.6875 193.886719 C 215.6875 208.359375 203.929688 220.117188 189.457031 220.117188 Z M 189.457031 220.117188 " fill-opacity="1" fill-rule="nonzero"/></g><path fill="#ffde59" d="M 152.9375 194.996094 L 57.648438 194.996094 L 57.648438 192.734375 L 152.9375 192.734375 Z M 152.9375 194.996094 " fill-opacity="1" fill-rule="nonzero"/><g clip-path="url(#7067a59f44)"><path fill="#ffde59" d="M 321.269531 194.996094 L 225.976562 194.996094 L 225.976562 192.734375 L 321.269531 192.734375 Z M 321.269531 194.996094 " fill-opacity="1" fill-rule="nonzero"/></g><g clip-path="url(#3871964d3e)"><path fill="#ffde59" d="M 190.589844 157.367188 L 188.328125 157.367188 L 188.328125 62.078125 L 190.589844 62.078125 Z M 190.589844 157.367188 " fill-opacity="1" fill-rule="nonzero"/></g><path fill="#ffde59" d="M 164.445312 167.253906 L 162.84375 168.851562 L 109.40625 115.414062 L 111.003906 113.816406 Z M 164.445312 167.253906 " fill-opacity="1" fill-rule="nonzero"/><path fill="#ffde59" d="M 269.5 115.417969 L 216.066406 168.855469 L 214.464844 167.257812 L 267.902344 113.820312 Z M 269.5 115.417969 " fill-opacity="1" fill-rule="nonzero"/><path fill="#ffde59" d="M 165.0625 132.816406 L 162.976562 133.691406 L 151.90625 107.292969 L 153.988281 106.417969 Z M 165.0625 132.816406 " fill-opacity="1" fill-rule="nonzero"/><path fill="#ffde59" d="M 176.371094 159.761719 L 174.285156 160.636719 L 166.726562 142.617188 L 168.8125 141.746094 Z M 176.371094 159.761719 " fill-opacity="1" fill-rule="nonzero"/><path fill="#ffde59" d="M 129.027344 167.9375 L 128.171875 170.03125 L 101.671875 159.195312 L 102.527344 157.101562 Z M 129.027344 167.9375 " fill-opacity="1" fill-rule="nonzero"/><path fill="#ffde59" d="M 156.078125 178.996094 L 155.222656 181.089844 L 137.160156 173.703125 L 138.015625 171.609375 Z M 156.078125 178.996094 " fill-opacity="1" fill-rule="nonzero"/><path fill="#ffde59" d="M 226.21875 106.949219 L 215.371094 133.445312 L 213.28125 132.589844 L 224.125 106.09375 Z M 226.21875 106.949219 " fill-opacity="1" fill-rule="nonzero"/><path fill="#ffde59" d="M 211.707031 142.4375 L 204.304688 160.519531 L 202.210938 159.664062 L 209.613281 141.582031 Z M 211.707031 142.4375 " fill-opacity="1" fill-rule="nonzero"/><path fill="#ffde59" d="M 276.929688 158.40625 L 250.53125 169.480469 L 249.65625 167.394531 L 276.058594 156.320312 Z M 276.929688 158.40625 " fill-opacity="1" fill-rule="nonzero"/><path fill="#ffde59" d="M 241.578125 173.238281 L 223.5625 180.796875 L 222.6875 178.710938 L 240.703125 171.152344 Z M 241.578125 173.238281 " fill-opacity="1" fill-rule="nonzero"/><g fill="#2c4c9c" fill-opacity="1"><g transform="translate(36.134768, 248.728899)"><g><path d="M 19.964844 0.433594 C 29.015625 0.433594 33.257812 -4.808594 33.257812 -4.808594 L 29.792969 -10.351562 C 29.792969 -10.351562 27.671875 -5.976562 20.351562 -5.976562 C 10.480469 -5.976562 5.152344 -15.632812 5.152344 -26.632812 C 5.152344 -34.902344 8.574219 -40.792969 14.507812 -40.792969 C 19.402344 -40.792969 24.335938 -38.109375 27.757812 -34.082031 L 32.003906 -39.148438 C 30.398438 -41.574219 25.941406 -43.738281 21.480469 -43.738281 C 9.179688 -43.738281 1.730469 -34.558594 1.730469 -22.214844 C 1.730469 -10.304688 7.925781 0.433594 19.964844 0.433594 Z M 19.964844 0.433594 "/></g></g></g><g fill="#2c4c9c" fill-opacity="1"><g transform="translate(70.03934, 248.728899)"><g><path d="M 14.378906 0.433594 C 21.175781 0.433594 26.632812 -4.417969 26.632812 -14.722656 C 26.632812 -25.03125 21.089844 -29.878906 14.378906 -29.878906 C 7.363281 -29.878906 2.164062 -25.03125 2.164062 -14.722656 C 2.164062 -4.417969 7.621094 0.433594 14.378906 0.433594 Z M 11.085938 -28.796875 C 14.59375 -29.664062 18.96875 -24.035156 20.785156 -16.28125 C 22.605469 -8.53125 21.261719 -1.558594 17.753906 -0.691406 C 14.289062 0.171875 9.917969 -5.414062 8.097656 -13.164062 C 6.277344 -20.960938 7.621094 -27.933594 11.085938 -28.796875 Z M 11.085938 -28.796875 "/></g></g></g><g fill="#2c4c9c" fill-opacity="1"><g transform="translate(98.834413, 248.728899)"><g><path d="M 10.046875 0.433594 C 16.324219 0.433594 20.050781 -5.238281 20.65625 -8.878906 L 20.65625 0 L 26.9375 0 L 26.9375 -29.449219 L 20.65625 -29.449219 L 20.65625 -13.078125 C 20.65625 -7.058594 17.019531 -1.515625 12.386719 -1.515625 C 10.304688 -1.515625 8.878906 -2.859375 8.878906 -5.628906 L 8.878906 -29.449219 L 2.597656 -29.449219 L 2.597656 -7.792969 C 2.597656 0 7.75 0.433594 10.046875 0.433594 Z M 10.046875 0.433594 "/></g></g></g><g fill="#2c4c9c" fill-opacity="1"><g transform="translate(128.365604, 248.728899)"><g><path d="M 0 -26.761719 L 0 -26.546875 C 2.121094 -26.546875 3.074219 -26.070312 3.074219 -23.730469 L 3.074219 0 L 9.355469 0 L 9.355469 -16.371094 C 9.355469 -22.390625 12.992188 -27.933594 17.625 -27.933594 C 19.703125 -27.933594 21.132812 -26.589844 21.132812 -23.816406 L 21.132812 0 L 27.410156 0 L 27.410156 -21.652344 C 27.410156 -29.449219 22.257812 -29.878906 19.964844 -29.878906 C 13.683594 -29.878906 9.960938 -24.207031 9.355469 -20.570312 L 9.355469 -29.878906 C 7.101562 -28.582031 3.203125 -27.152344 0 -26.761719 Z M 0 -26.761719 "/></g></g></g><g fill="#2c4c9c" fill-opacity="1"><g transform="translate(158.373099, 248.728899)"><g><path d="M 12.90625 0.433594 C 19.402344 0.433594 24.25 -2.164062 24.25 -7.535156 C 24.25 -18.707031 4.242188 -17.0625 4.242188 -24.988281 C 4.242188 -26.417969 5.195312 -27.84375 7.273438 -27.84375 C 12.90625 -27.84375 17.320312 -23.558594 20.222656 -20.308594 L 23.515625 -26.847656 C 22.042969 -27.84375 18.1875 -29.878906 13.382812 -29.878906 C 6.84375 -29.878906 1.6875 -27.195312 1.6875 -21.652344 C 1.6875 -10.652344 21.609375 -11.691406 21.609375 -4.242188 C 21.609375 -2.554688 20.308594 -1.558594 18.75 -1.558594 C 12.210938 -1.558594 6.886719 -6.410156 4.15625 -11.953125 L 0.867188 -4.199219 C 3.8125 -1.125 7.707031 0.433594 12.90625 0.433594 Z M 12.90625 0.433594 "/></g></g></g><g fill="#2c4c9c" fill-opacity="1"><g transform="translate(183.487603, 248.728899)"><g><path d="M 16.84375 0.433594 C 19.617188 0.433594 22.476562 0 24.769531 -1.167969 L 27.238281 -8.921875 L 27.023438 -8.921875 C 25.332031 -6.753906 22.128906 -5.328125 18.882812 -5.328125 C 14.808594 -5.328125 11.519531 -7.101562 9.355469 -9.960938 C 11.214844 -10.957031 15.589844 -13.292969 19.746094 -15.285156 C 23.382812 -17.019531 26.890625 -18.273438 26.890625 -22.171875 C 26.890625 -26.15625 22.691406 -29.878906 16.28125 -29.878906 C 6.234375 -29.878906 2.164062 -22.34375 2.164062 -14.289062 C 2.164062 -5.933594 8.789062 0.433594 16.84375 0.433594 Z M 13.078125 -28.625 C 19.226562 -28.625 20.613281 -24.46875 20.613281 -22.171875 C 20.613281 -17.453125 11.605469 -11.910156 9.007812 -10.4375 C 7.1875 -13.035156 6.191406 -16.414062 6.191406 -20.09375 C 6.191406 -24.292969 8.269531 -28.625 13.078125 -28.625 Z M 13.078125 -28.625 "/></g></g></g><g fill="#2c4c9c" fill-opacity="1"><g transform="translate(211.589862, 248.728899)"><g><path d="M 0 -40.621094 L 0 -40.402344 C 2.121094 -40.402344 3.074219 -40.101562 3.074219 -37.761719 L 3.074219 0 L 9.355469 0 L 9.355469 -43.738281 C 7.101562 -42.4375 3.203125 -41.011719 0 -40.621094 Z M 0 -40.621094 "/></g></g></g><g fill="#2c4c9c" fill-opacity="1"><g transform="translate(223.540903, 248.728899)"><g><path d="M 19.964844 0.433594 C 29.015625 0.433594 33.257812 -4.808594 33.257812 -4.808594 L 29.792969 -10.351562 C 29.792969 -10.351562 27.671875 -5.976562 20.351562 -5.976562 C 10.480469 -5.976562 5.152344 -15.632812 5.152344 -26.632812 C 5.152344 -34.902344 8.574219 -40.792969 14.507812 -40.792969 C 19.402344 -40.792969 24.335938 -38.109375 27.757812 -34.082031 L 32.003906 -39.148438 C 30.398438 -41.574219 25.941406 -43.738281 21.480469 -43.738281 C 9.179688 -43.738281 1.730469 -34.558594 1.730469 -22.214844 C 1.730469 -10.304688 7.925781 0.433594 19.964844 0.433594 Z M 19.964844 0.433594 "/></g></g></g><g fill="#2c4c9c" fill-opacity="1"><g transform="translate(257.445476, 248.728899)"><g><path d="M 1.300781 -5.804688 C 1.300781 -1.777344 5.628906 0.433594 9.699219 0.433594 C 17.710938 0.433594 22.042969 -5.285156 22.042969 -9.179688 L 22.042969 0 L 28.40625 0 C 26.632812 -7.230469 25.59375 -11.953125 24.078125 -18.101562 C 22.5625 -24.292969 21.914062 -29.878906 13.292969 -29.878906 C 8.402344 -29.878906 2.773438 -26.890625 1.515625 -21.480469 C 3.722656 -21.347656 8.402344 -20.570312 12.644531 -18.792969 C 6.972656 -15.71875 1.300781 -11.214844 1.300781 -5.804688 Z M 21.394531 -9.179688 C 21.394531 -6.410156 17.972656 -1.300781 13.769531 -1.300781 C 10.21875 -1.300781 7.40625 -3.59375 7.40625 -6.753906 C 7.40625 -11.214844 10.609375 -15.15625 14.421875 -18.015625 C 18.273438 -16.066406 21.394531 -13.25 21.394531 -9.179688 Z M 13.554688 -19.3125 C 12.125 -19.921875 10.523438 -20.484375 8.878906 -20.960938 C 8.140625 -21.175781 8.011719 -21.914062 8.011719 -22.300781 C 8.011719 -24.078125 10.914062 -27.976562 16.371094 -27.976562 C 19.269531 -27.976562 21.738281 -26.285156 22 -22.734375 C 20.007812 -22.171875 16.84375 -20.960938 13.554688 -19.3125 Z M 22.042969 -22 L 22.042969 -9.179688 C 22.042969 -13.425781 19.269531 -16.371094 15.15625 -18.535156 C 17.453125 -20.136719 19.964844 -21.347656 22.042969 -22 Z M 22.042969 -22 "/></g></g></g><g fill="#2c4c9c" fill-opacity="1"><g transform="translate(286.716875, 248.728899)"><g><path d="M 0 -26.761719 L 0 -26.546875 C 2.121094 -26.546875 3.074219 -26.070312 3.074219 -23.730469 L 3.074219 0 L 9.355469 0 L 9.355469 -17.0625 C 9.355469 -21.738281 12.472656 -24.511719 15.851562 -24.511719 C 17.796875 -24.511719 19.355469 -23.859375 20.871094 -23.125 L 23.167969 -28.796875 C 21.957031 -29.535156 20.484375 -29.878906 18.75 -29.878906 C 13.078125 -29.878906 10.304688 -24.597656 9.355469 -20.570312 L 9.355469 -29.878906 C 7.101562 -28.582031 3.203125 -27.152344 0 -26.761719 Z M 0 -26.761719 "/></g></g></g><g fill="#2c4c9c" fill-opacity="1"><g transform="translate(310.748871, 248.728899)"><g><path d="M 16.84375 0.433594 C 19.617188 0.433594 22.476562 0 24.769531 -1.167969 L 27.238281 -8.921875 L 27.023438 -8.921875 C 25.332031 -6.753906 22.128906 -5.328125 18.882812 -5.328125 C 14.808594 -5.328125 11.519531 -7.101562 9.355469 -9.960938 C 11.214844 -10.957031 15.589844 -13.292969 19.746094 -15.285156 C 23.382812 -17.019531 26.890625 -18.273438 26.890625 -22.171875 C 26.890625 -26.15625 22.691406 -29.878906 16.28125 -29.878906 C 6.234375 -29.878906 2.164062 -22.34375 2.164062 -14.289062 C 2.164062 -5.933594 8.789062 0.433594 16.84375 0.433594 Z M 13.078125 -28.625 C 19.226562 -28.625 20.613281 -24.46875 20.613281 -22.171875 C 20.613281 -17.453125 11.605469 -11.910156 9.007812 -10.4375 C 7.1875 -13.035156 6.191406 -16.414062 6.191406 -20.09375 C 6.191406 -24.292969 8.269531 -28.625 13.078125 -28.625 Z M 13.078125 -28.625 "/></g></g></g></svg>