<svg xmlns="http://www.w3.org/2000/svg" xmlns:xlink="http://www.w3.org/1999/xlink" width="500" zoomAndPan="magnify" viewBox="0 0 375 374.999991" height="500" preserveAspectRatio="xMidYMid meet" version="1.0">
  <!-- Add the white background circle here -->
  <circle cx="187.5" cy="187.5" r="187.5" fill="white"/>
  
  <defs>
    <g/>
    <clipPath id="5fbe06d939">
      <path d="M 160 165 L 218 165 L 218 197.460938 L 160 197.460938 Z M 160 165 " clip-rule="nonzero"/>
    </clipPath>
    <clipPath id="7067a59f44">
      <path d="M 225 192 L 321.6875 192 L 321.6875 195 L 225 195 Z M 225 192 " clip-rule="nonzero"/>
    </clipPath>
    <clipPath id="3871964d3e">
      <path d="M 188 81.960938 L 191 81.960938 L 191 158 L 188 158 Z M 188 81.960938 " clip-rule="nonzero"/>
    </clipPath>
  </defs>
  
  <g clip-path="url(#5fbe06d939)">
    <path fill="#ffde59" d="M 189.457031 165.371094 C 173.742188 165.371094 160.964844 178.148438 160.964844 193.863281 C 160.964844 209.578125 173.742188 222.378906 189.457031 222.378906 C 205.175781 222.378906 217.949219 209.601562 217.949219 193.886719 C 217.949219 178.171875 205.175781 165.371094 189.457031 165.371094 Z M 189.457031 220.117188 C 174.984375 220.117188 163.226562 208.359375 163.226562 193.886719 C 163.226562 179.414062 174.984375 167.65625 189.457031 167.65625 C 203.929688 167.65625 215.6875 179.414062 215.6875 193.886719 C 215.6875 208.359375 203.929688 220.117188 189.457031 220.117188 Z M 189.457031 220.117188 " fill-opacity="1" fill-rule="nonzero"/>
  </g>
  
  <path fill="#ffde59" d="M 152.9375 194.996094 L 57.648438 194.996094 L 57.648438 192.734375 L 152.9375 192.734375 Z M 152.9375 194.996094 " fill-opacity="1" fill-rule="nonzero"/>
  
  <g clip-path="url(#7067a59f44)">
    <path fill="#ffde59" d="M 321.269531 194.996094 L 225.976562 194.996094 L 225.976562 192.734375 L 321.269531 192.734375 Z M 321.269531 194.996094 " fill-opacity="1" fill-rule="nonzero"/>
  </g>
  
  <g clip-path="url(#3871964d3e)">
    <path fill="#ffde59" d="M 190.589844 157.367188 L 188.328125 157.367188 L 188.328125 62.078125 L 190.589844 62.078125 Z M 190.589844 157.367188 " fill-opacity="1" fill-rule="nonzero"/>
  </g>
  
  <path fill="#ffde59" d="M 164.445312 167.253906 L 162.84375 168.851562 L 109.40625 115.414062 L 111.003906 113.816406 Z M 164.445312 167.253906 " fill-opacity="1" fill-rule="nonzero"/>
  <path fill="#ffde59" d="M 269.5 115.417969 L 216.066406 168.855469 L 214.464844 167.257812 L 267.902344 113.820312 Z M 269.5 115.417969 " fill-opacity="1" fill-rule="nonzero"/>
  <path fill="#ffde59" d="M 165.0625 132.816406 L 162.976562 133.691406 L 151.90625 107.292969 L 153.988281 106.417969 Z M 165.0625 132.816406 " fill-opacity="1" fill-rule="nonzero"/>
  <path fill="#ffde59" d="M 176.371094 159.761719 L 174.285156 160.636719 L 166.726562 142.617188 L 168.8125 141.746094 Z M 176.371094 159.761719 " fill-opacity="1" fill-rule="nonzero"/>
  <path fill="#ffde59" d="M 129.027344 167.9375 L 128.171875 170.03125 L 101.671875 159.195312 L 102.527344 157.101562 Z M 129.027344 167.9375 " fill-opacity="1" fill-rule="nonzero"/>
  <path fill="#ffde59" d="M 156.078125 178.996094 L 155.222656 181.089844 L 137.160156 173.703125 L 138.015625 171.609375 Z M 156.078125 178.996094 " fill-opacity="1" fill-rule="nonzero"/>
  <path fill="#ffde59" d="M 226.21875 106.949219 L 215.371094 133.445312 L 213.28125 132.589844 L 224.125 106.09375 Z M 226.21875 106.949219 " fill-opacity="1" fill-rule="nonzero"/>
  <path fill="#ffde59" d="M 211.707031 142.4375 L 204.304688 160.519531 L 202.210938 159.664062 L 209.613281 141.582031 Z M 211.707031 142.4375 " fill-opacity="1" fill-rule="nonzero"/>
  <path fill="#ffde59" d="M 276.929688 158.40625 L 250.53125 169.480469 L 249.65625 167.394531 L 276.058594 156.320312 Z M 276.929688 158.40625 " fill-opacity="1" fill-rule="nonzero"/>
  <path fill="#ffde59" d="M 241.578125 173.238281 L 223.5625 180.796875 L 222.6875 178.710938 L 240.703125 171.152344 Z M 241.578125 173.238281 " fill-opacity="1" fill-rule="nonzero"/>
  
  <g fill="#2c4c9c" fill-opacity="1">
    <g transform="translate(36.134768, 248.728899)">
      <g>
        <path d="M 19.964844 0.433594 C 29.015625 0.433594 33.257812 -4.808594 33.257812 -4.808594 L 29.792969 -10.351562 C 29.792969 -10.351562 27.671875 -5.976562 20.351562 -5.976562 C 10.480469 -5.976562 5.152344 -15.632812 5.152344 -26.632812 C 5.152344 -34.902344 8.574219 -40.792969 14.507812 -40.792969 C 19.402344 -40.792969 24.335938 -38.109375 27.757812 -34.082031 L 32.003906 -39.148438 C 30.398438 -41.574219 25.941406 -43.738281 21.480469 -43.738281 C 9.179688 -43.738281 1.730469 -34.558594 1.730469 -24.074219 C 1.730469 -12.199219 10.707031 0.433594 19.964844 0.433594 Z M 19.964844 0.433594 " fill-opacity="1" fill-rule="nonzero"/>
      </g>
    </g>
    
    <g transform="translate(60.487171, 259.171092)">
      <g>
        <path d="M 4.71875 -43.738281 L 4.71875 -12.964844 C 4.71875 -3.007812 10.234375 0.582031 16.589844 0.582031 C 22.496094 0.582031 28.261719 -2.894531 30.59375 -8.148438 L 26.207031 -12.601562 C 24.484375 -9.773438 21.355469 -7.464844 17.546875 -7.464844 C 11.480469 -7.464844 7.890625 -12.050781 7.890625 -17.800781 L 7.890625 -43.738281 Z M 4.71875 -43.738281 " fill-opacity="1" fill-rule="nonzero"/>
      </g>
    </g>
    
    <g transform="translate(79.780533, 259.171092)">
      <g>
        <path d="M 11.5625 -18.144531 C 17.402344 -18.144531 22.847656 -20.863281 26.476562 -25.453125 L 22.308594 -29.585938 C 20.15625 -26.652344 16.191406 -24.074219 11.5625 -24.074219 C 7.019531 -24.074219 3.597656 -27.117188 3.597656 -30.917969 C 3.597656 -35.4375 7.953125 -37.53125 11.445312 -37.53125 C 14.472656 -37.53125 18.652344 -36.164062 21.03125 -34.355469 L 22.996094 -37.507812 C 19.65625 -39.730469 15.25 -41.007812 11.085938 -41.007812 C 4.957031 -41.007812 0.78125 -36.867188 0.78125 -31.933594 C 0.78125 -26.175781 6.199219 -18.144531 11.5625 -18.144531 Z M 11.5625 -18.144531 " fill-opacity="1" fill-rule="nonzero"/>
      </g>
    </g>
    
    <g transform="translate(94.881868, 259.171092)">
      <g>
        <path d="M 15.703125 0.582031 L 29.148438 0.582031 L 29.148438 -3.378906 L 20.703125 -3.378906 L 20.703125 -24.925781 L 30.015625 -24.925781 L 30.015625 -28.96875 L 20.703125 -28.96875 L 20.703125 -40.457031 L 29.003906 -40.457031 L 29.003906 -43.738281 L 15.703125 -43.738281 Z M 15.703125 0.582031 " fill-opacity="1" fill-rule="nonzero"/>
      </g>
    </g>
    
    <g transform="translate(113.168024, 259.171092)">
      <g>
        <path d="M 11.5625 0.433594 C 16.34375 0.433594 20.96875 -2.578125 23.570312 -6.859375 L 22.996094 0 L 26.886719 0 L 26.886719 -43.738281 L 23.707031 -43.738281 L 23.707031 -13.582031 C 21.019531 -8.433594 16.144531 -6.144531 11.5625 -6.144531 C 6.199219 -6.144531 0.78125 -14.175781 0.78125 -19.933594 C 0.78125 -24.867188 4.957031 -29.007812 11.085938 -29.007812 C 15.25 -29.007812 19.65625 -27.730469 22.996094 -25.507812 L 21.03125 -22.355469 C 18.652344 -24.164062 14.472656 -25.53125 11.445312 -25.53125 C 7.953125 -25.53125 3.597656 -23.4375 3.597656 -18.917969 C 3.597656 -15.117188 7.019531 -12.074219 11.5625 -12.074219 C 16.191406 -12.074219 20.15625 -14.652344 22.308594 -17.585938 L 26.476562 -13.453125 C 22.847656 -8.863281 17.402344 -6.144531 11.5625 -6.144531 C 6.199219 -6.144531 0.78125 -14.175781 0.78125 -19.933594 C 0.78125 -24.867188 4.957031 -29.007812 11.085938 -29.007812 C 15.25 -29.007812 19.65625 -27.730469 22.996094 -25.507812 L 22.996094 -37.507812 C 19.65625 -39.730469 15.25 -41.007812 11.085938 -41.007812 C 4.957031 -41.007812 0.78125 -36.867188 0.78125 -31.933594 C 0.78125 -26.175781 6.199219 -18.144531 11.5625 -18.144531 Z M 11.5625 -18.144531 " fill-opacity="1" fill-rule="nonzero"/>
      </g>
    </g>
    
    <g transform="translate(137.484862, 259.171092)">
      <g>
        <path d="M 6.144531 -17.800781 L 6.144531 -0.00390625 L 2.480469 -0.00390625 L 2.480469 -43.738281 L 6.144531 -43.738281 L 6.144531 -30.582031 C 7.566406 -32.886719 11.445312 -35.800781 15.25 -35.800781 C 22.308594 -35.800781 25.226562 -29.738281 25.226562 -24.308594 L 25.226562 -0.00390625 L 28.890625 -0.00390625 L 28.890625 -24.308594 C 28.890625 -31.503906 23.707031 -38.328125 15.25 -38.328125 C 10.625 -38.328125 7.097656 -35.800781 6.144531 -32.886719 Z M 6.144531 -17.800781 " fill-opacity="1" fill-rule="nonzero"/>
      </g>
    </g>
  </g>
</svg>
